<svg id="Capa_1" data-name="Capa 1" xmlns="http://www.w3.org/2000/svg" viewBox="0 0 335.01 272.15">
  <defs>
    <style>
      .cls-1 {
        fill: #fff;
        height: 100%;
        width: 100%;
      }
    </style>
  </defs>
  <path class="cls-1" d="M0,241.78a195.14,195.14,0,0,0,104.87,30.37c108.35,0,196.18-87.84,196.18-196.18,0-2.71-.05-5.39-.16-8.07,3.92-3.08,28.16-22.51,34.1-35,0,0-19.68,8.18-38.95,10.11h-.12l.11-.07c1.77-1.18,26.59-18.08,29.95-38.2a239.44,239.44,0,0,1-33.42,13.93c-3.23,1.07-6.6,2.12-10.09,3.1a68.83,68.83,0,0,0-117.3,62.61C159.87,84.18,79,79.64,23.9,13c0,0-32.91,44.92,19.6,91.11,0,0-16-.64-29.73-8.87,0,0-5.06,54.42,54.41,68.33,0,0-11.7,4.43-30.37,1.27,0,0,10.44,44,63.27,48.08,0,0-41.78,37.74-101.08,28.89Z"/>
</svg>
