<svg id="Layer_1" data-name="Layer 1" xmlns="http://www.w3.org/2000/svg" viewBox="0 0 165 191.12">
  <defs>
    <style>
      .cls-1 {
        fill: #fff;
      }
    </style>
  </defs>
  <g>
    <path class="cls-1" d="M879,602V477a9.92,9.92,0,0,0,1.55-1.07q15.21-15.17,30.38-30.38A9.92,9.92,0,0,0,912,444h132v97c-1.23,1.06-2.52,2-3.67,3.19q-29,28.92-57.87,57.85H953.08L920,635.12c0-10.43,0-21.4,0-32.37a.77.77,0,0,0-.17-.42,2.82,2.82,0,0,0-.36-.33Zm72.06-18.43L974.59,560h27.9l26.36-26.35V458.22H921.1V560.05h30Z" transform="translate(-879 -444)"/>
    <path class="cls-1" d="M957.08,522.83V481.17h14.44c.69,4,.88,27.86.31,41.66Z" transform="translate(-879 -444)"/>
    <path class="cls-1" d="M995.17,481.09h14.66v41.82H995.17Z" transform="translate(-879 -444)"/>
  </g>
</svg>
